<?xml version="1.0" encoding="UTF-8" standalone="no"?>
<!DOCTYPE svg PUBLIC "-//W3C//DTD SVG 1.1//EN" "http://www.w3.org/Graphics/SVG/1.1/DTD/svg11.dtd">
<svg version="1.1" xmlns="http://www.w3.org/2000/svg" xmlns:xlink="http://www.w3.org/1999/xlink" preserveAspectRatio="xMidYMid meet" viewBox="0 0 640 640" width="100" height="100"><defs><path d="M289.9 369.61L290.92 372.02L291.76 374.46L292.42 376.93L292.89 379.44L293.18 381.97L293.28 384.53L293.18 387.09L292.89 389.63L292.42 392.13L291.76 394.61L290.92 397.05L289.9 399.46L288.72 401.83L287.36 404.16L285.84 406.46L284.15 408.71L282.31 410.92L280.32 413.08L278.18 415.19L275.88 417.25L273.45 419.26L270.88 421.22L268.17 423.12L265.33 424.96L262.37 426.74L259.28 428.46L256.07 430.11L252.74 431.7L249.3 433.22L245.76 434.67L242.1 436.05L238.35 437.35L234.5 438.58L230.55 439.73L226.52 440.79L225.15 441.12L225.15 493.52L225.85 494.23L226.68 495.17L227.46 496.16L228.2 497.2L228.89 498.29L229.53 499.43L230.12 500.6L230.66 501.82L231.14 503.08L231.56 504.37L231.92 505.7L232.23 507.06L232.46 508.44L232.64 509.86L232.74 511.3L232.78 512.76L232.74 514.22L232.64 515.66L232.46 517.07L232.23 518.46L231.92 519.81L231.56 521.14L231.14 522.43L230.66 523.69L230.12 524.91L229.53 526.09L228.89 527.22L228.2 528.31L227.46 529.35L226.68 530.34L225.85 531.28L224.98 532.16L224.06 532.99L223.12 533.76L222.13 534.46L221.97 534.56L221.97 608.97L201.72 608.97L201.72 534.41L200.8 533.76L199.86 532.99L198.94 532.16L198.07 531.28L197.24 530.34L196.46 529.35L195.72 528.31L195.03 527.22L194.39 526.09L193.8 524.91L193.26 523.69L192.78 522.43L192.36 521.14L192 519.81L191.69 518.46L191.46 517.07L191.28 515.66L191.18 514.22L191.14 512.76L191.18 511.3L191.28 509.86L191.46 508.44L191.69 507.06L192 505.7L192.36 504.37L192.78 503.08L193.26 501.82L193.8 500.6L194.39 499.43L195.03 498.29L195.72 497.2L196.46 496.16L197.24 495.17L198.07 494.23L198.77 493.52L198.77 445.58L196.06 445.85L191.44 446.2L186.76 446.46L182.03 446.61L177.25 446.67L172.47 446.61L167.74 446.46L163.06 446.2L158.44 445.85L153.88 445.4L149.38 444.86L149.03 444.81L149.03 493.52L149.73 494.23L150.56 495.17L151.34 496.16L152.08 497.2L152.77 498.29L153.42 499.43L154.01 500.6L154.54 501.82L155.02 503.08L155.44 504.37L155.81 505.7L156.11 507.06L156.35 508.44L156.52 509.86L156.62 511.3L156.66 512.76L156.62 514.22L156.52 515.66L156.35 517.07L156.11 518.46L155.81 519.81L155.44 521.14L155.02 522.43L154.54 523.69L154.01 524.91L153.42 526.09L152.77 527.22L152.08 528.31L151.34 529.35L150.56 530.34L149.73 531.28L148.86 532.16L147.95 532.99L147 533.76L146.08 534.41L146.08 608.97L125.83 608.97L125.83 534.56L125.67 534.46L124.69 533.76L123.74 532.99L122.83 532.16L121.96 531.28L121.13 530.34L120.34 529.35L119.6 528.31L118.91 527.22L118.27 526.09L117.68 524.91L117.14 523.69L116.66 522.43L116.24 521.14L115.88 519.81L115.58 518.46L115.34 517.07L115.17 515.66L115.06 514.22L115.03 512.76L115.06 511.3L115.17 509.86L115.34 508.44L115.58 507.06L115.88 505.7L116.24 504.37L116.66 503.08L117.14 501.82L117.68 500.6L118.27 499.43L118.91 498.29L119.6 497.2L120.34 496.16L121.13 495.17L121.96 494.23L122.66 493.52L122.66 439.35L120 438.58L116.15 437.35L112.4 436.05L108.74 434.67L105.2 433.22L101.76 431.7L98.43 430.11L95.22 428.46L92.13 426.74L89.17 424.96L86.33 423.12L83.62 421.22L81.05 419.26L78.61 417.25L76.32 415.19L74.18 413.08L72.19 410.92L70.34 408.71L68.66 406.46L67.14 404.16L65.78 401.83L64.6 399.46L63.58 397.05L62.74 394.61L62.08 392.13L61.61 389.63L61.32 387.09L61.22 384.53L61.32 381.97L61.61 379.44L62.08 376.93L62.74 374.46L63.58 372.02L64.6 369.61L65.78 367.24L66.55 365.92L287.95 365.92L288.72 367.24L289.9 369.61Z" id="b52ugV7B2W"></path><path d="M211.51 21.12L191.48 72.62L313.52 194.58L277.91 230.21L280.59 232.91L284.59 237.27L288.43 241.79L292.1 246.46L295.59 251.27L298.9 256.23L302.02 261.32L304.95 266.55L307.69 271.9L310.21 277.38L312.53 282.98L314.64 288.69L316.52 294.51L318.18 300.44L319.61 306.47L320.8 312.59L321.75 318.81L322.45 325.12L322.9 331.45L323.09 337.73L323.03 343.97L322.71 350.16L322.15 356.29L321.35 362.36L320.31 368.36L319.05 374.28L317.55 380.13L315.83 385.88L313.9 391.55L311.75 397.13L309.39 402.6L306.83 407.97L304.06 413.22L301.1 418.36L297.95 423.38L294.62 428.26L291.1 433.02L287.4 437.63L283.53 442.1L279.49 446.42L275.29 450.59L271.92 453.68L271.9 395.57L271.31 396.65L270.23 398.32L268.99 399.98L267.59 401.6L266.05 403.19L264.37 404.75L262.54 406.28L260.58 407.77L258.49 409.23L256.26 410.65L253.91 412.04L251.43 413.38L248.83 414.68L246.12 415.94L243.29 417.16L240.36 418.33L237.31 419.45L234.17 420.53L230.92 421.55L227.58 422.53L224.15 423.45L220.62 424.32L217.01 425.13L213.32 425.88L209.55 426.58L205.7 427.22L201.78 427.79L197.8 428.31L193.74 428.76L189.63 429.14L185.46 429.46L181.23 429.71L176.95 429.89L172.62 430L168.25 430.04L163.87 430L159.55 429.89L155.27 429.71L151.04 429.46L146.86 429.14L142.75 428.76L138.7 428.31L134.71 427.79L130.79 427.22L126.94 426.58L123.17 425.88L119.48 425.13L115.87 424.32L112.35 423.45L108.91 422.53L105.57 421.55L102.33 420.53L99.18 419.45L96.14 418.33L93.2 417.16L90.37 415.94L87.66 414.68L85.06 413.38L82.59 412.04L80.23 410.65L78.01 409.23L75.91 407.77L73.95 406.28L72.12 404.75L70.61 403.35L70.63 457.45L70.57 457.4L66.1 453.53L61.77 449.49L57.61 445.29L53.6 440.92L49.76 436.41L46.1 431.74L42.6 426.92L39.3 421.97L36.17 416.87L33.24 411.65L30.51 406.29L27.99 400.81L25.67 395.22L23.56 389.51L21.68 383.68L20.02 377.76L18.59 371.73L17.4 365.6L16.45 359.38L15.74 353.08L15.3 346.75L15.11 340.46L15.17 334.22L15.49 328.03L16.05 321.9L16.85 315.84L17.88 309.84L19.15 303.91L20.65 298.07L22.36 292.31L24.3 286.64L26.45 281.07L28.81 275.59L31.37 270.23L34.14 264.97L37.1 259.83L40.25 254.82L43.58 249.93L47.1 245.18L50.8 240.56L54.67 236.09L58.71 231.77L62.36 228.16L28.85 194.67L151.99 71.45L122.3 29.05L147.28 46.89L161.16 54.82L154.22 11.2L176.81 54.82L190.69 11.2L190.69 54.82L211.51 21.12ZM155.12 185.74L148.81 186.45L142.6 187.4L136.47 188.59L130.44 190.02L124.51 191.68L118.69 193.56L112.98 195.67L107.38 197.98L101.9 200.51L96.55 203.24L91.32 206.17L86.23 209.29L81.27 212.6L76.46 216.09L71.79 219.76L67.27 223.6L62.91 227.61L62.36 228.16L171.23 336.96L277.91 230.21L276.42 228.71L272.1 224.67L267.63 220.8L263.02 217.1L258.26 213.58L253.38 210.24L248.36 207.09L243.22 204.13L237.97 201.37L232.6 198.81L227.13 196.45L221.56 194.3L215.89 192.36L210.13 190.65L204.28 189.15L198.36 187.88L192.36 186.85L186.29 186.05L180.16 185.49L173.98 185.17L167.73 185.11L161.45 185.3L155.12 185.74Z" id="c2TIIjdl9C"></path><path d="M221.76 151.57L223.03 151.77L224.28 152.05L225.49 152.39L226.67 152.81L227.82 153.3L228.94 153.85L230.01 154.47L231.04 155.14L232.03 155.88L232.98 156.67L233.87 157.51L234.71 158.41L235.5 159.35L236.24 160.34L236.91 161.37L237.53 162.44L238.08 163.56L238.57 164.71L238.99 165.89L239.33 167.1L239.61 168.35L239.81 169.62L239.93 170.91L239.97 172.23L239.93 173.54L239.81 174.84L239.61 176.11L239.33 177.35L238.99 178.56L238.57 179.75L238.08 180.9L237.53 182.01L236.91 183.08L236.24 184.12L235.5 185.1L234.71 186.05L233.87 186.94L232.98 187.79L232.03 188.58L231.04 189.31L230.01 189.99L228.94 190.6L227.82 191.15L226.67 191.64L225.49 192.06L224.28 192.41L223.03 192.68L221.76 192.88L220.47 193L219.15 193.04L217.84 193L216.54 192.88L215.27 192.68L214.03 192.41L212.82 192.06L211.63 191.64L210.48 191.15L209.37 190.6L208.3 189.99L207.26 189.31L206.28 188.58L205.33 187.79L204.44 186.94L203.59 186.05L202.8 185.1L202.07 184.12L201.39 183.08L200.78 182.01L200.23 180.9L199.74 179.75L199.32 178.56L198.97 177.35L198.7 176.11L198.5 174.84L198.38 173.54L198.34 172.23L198.38 170.91L198.5 169.62L198.7 168.35L198.97 167.1L199.32 165.89L199.74 164.71L200.23 163.56L200.78 162.44L201.39 161.37L202.07 160.34L202.8 159.35L203.59 158.41L204.44 157.51L205.33 156.67L206.28 155.88L207.26 155.14L208.3 154.47L209.37 153.85L210.48 153.3L211.63 152.81L212.82 152.39L214.03 152.05L215.27 151.77L216.54 151.57L217.84 151.45L219.15 151.41L220.47 151.45L221.76 151.57ZM130.39 150.26L131.66 150.46L132.9 150.74L134.11 151.09L135.3 151.5L136.45 151.99L137.56 152.54L138.63 153.16L139.67 153.83L140.65 154.57L141.6 155.36L142.49 156.2L143.34 157.1L144.13 158.04L144.86 159.03L145.54 160.06L146.15 161.14L146.7 162.25L147.19 163.4L147.61 164.58L147.96 165.8L148.23 167.04L148.43 168.31L148.55 169.6L148.59 170.92L148.55 172.23L148.43 173.53L148.23 174.8L147.96 176.04L147.61 177.26L147.19 178.44L146.7 179.59L146.15 180.7L145.54 181.77L144.86 182.81L144.13 183.8L143.34 184.74L142.49 185.63L141.6 186.48L140.65 187.27L139.67 188L138.63 188.68L137.56 189.29L136.45 189.85L135.3 190.33L134.11 190.75L132.9 191.1L131.66 191.37L130.39 191.57L129.09 191.69L127.78 191.73L126.46 191.69L125.17 191.57L123.9 191.37L122.65 191.1L121.44 190.75L120.26 190.33L119.11 189.85L117.99 189.29L116.92 188.68L115.89 188L114.9 187.27L113.96 186.48L113.06 185.63L112.22 184.74L111.43 183.8L110.69 182.81L110.02 181.77L109.4 180.7L108.85 179.59L108.36 178.44L107.94 177.26L107.6 176.04L107.32 174.8L107.12 173.53L107 172.23L106.96 170.92L107 169.6L107.12 168.31L107.32 167.04L107.6 165.8L107.94 164.58L108.36 163.4L108.85 162.25L109.4 161.14L110.02 160.06L110.69 159.03L111.43 158.04L112.22 157.1L113.06 156.2L113.96 155.36L114.9 154.57L115.89 153.83L116.92 153.16L117.99 152.54L119.11 151.99L120.26 151.5L121.44 151.09L122.65 150.74L123.9 150.46L125.17 150.26L126.46 150.14L127.78 150.1L129.09 150.14L130.39 150.26Z" id="dzTlQP4RK"></path><path d="M15.11 616.67L323.09 616.67L323.09 545.64L300.21 555.22L278.4 573.06L262.54 580.48L238.75 567.11L224.71 555.22L190.71 559.66L185.23 573.06L169.1 580.48L148.59 567.11L122.22 573.06L101.41 567.11L80.16 573.06L66.28 592.88L42.49 580.48L15.11 567.11L15.11 616.67Z" id="e5qkR0Cpb"></path><path d="M187.48 282.11L188.56 282.69L189.53 283.48L190.37 284.43L191.05 285.54L191.56 286.77L191.89 288.11L192 289.54L191.89 290.96L191.56 292.31L191.05 293.54L190.37 294.65L189.53 295.6L188.56 296.39L187.48 296.97L186.31 297.34L185.06 297.47L183.81 297.34L182.64 296.97L181.56 296.39L180.59 295.6L179.75 294.65L179.07 293.54L178.56 292.31L178.23 290.96L178.12 289.54L178.23 288.11L178.56 286.77L179.07 285.54L179.75 284.43L180.59 283.48L181.56 282.69L182.64 282.11L183.81 281.74L185.06 281.61L186.31 281.74L187.48 282.11ZM157.95 282.11L159.03 282.69L160 283.48L160.84 284.43L161.52 285.54L162.03 286.77L162.36 288.11L162.47 289.54L162.36 290.96L162.03 292.31L161.52 293.54L160.84 294.65L160 295.6L159.03 296.39L157.95 296.97L156.78 297.34L155.53 297.47L154.28 297.34L153.11 296.97L152.03 296.39L151.06 295.6L150.22 294.65L149.54 293.54L149.03 292.31L148.7 290.96L148.59 289.54L148.7 288.11L149.03 286.77L149.54 285.54L150.22 284.43L151.06 283.48L152.03 282.69L153.11 282.11L154.28 281.74L155.53 281.61L156.78 281.74L157.95 282.11Z" id="a3MrgY9BM"></path><path d="M225.62 168.44L226.8 168.94L227.9 169.61L228.9 170.45L229.78 171.43L230.53 172.53L231.14 173.75L231.59 175.07L231.87 176.46L231.96 177.93L231.87 179.39L231.59 180.79L231.14 182.11L230.53 183.32L229.78 184.43L228.9 185.41L227.9 186.24L226.8 186.92L225.62 187.42L224.36 187.73L223.04 187.84L221.73 187.73L220.47 187.42L219.28 186.92L218.19 186.24L217.19 185.41L216.31 184.43L215.56 183.32L214.95 182.11L214.5 180.79L214.22 179.39L214.12 177.93L214.22 176.46L214.5 175.07L214.95 173.75L215.56 172.53L216.31 171.43L217.19 170.45L218.19 169.61L219.28 168.94L220.47 168.44L221.73 168.12L223.04 168.02L224.36 168.12L225.62 168.44ZM134.03 166.76L135.21 167.26L136.31 167.94L137.31 168.77L138.19 169.75L138.94 170.86L139.55 172.07L140 173.39L140.28 174.79L140.38 176.25L140.28 177.71L140 179.11L139.55 180.43L138.94 181.65L138.19 182.75L137.31 183.73L136.31 184.57L135.21 185.24L134.03 185.74L132.77 186.06L131.46 186.16L130.14 186.06L128.88 185.74L127.7 185.24L126.6 184.57L125.6 183.73L124.72 182.75L123.97 181.65L123.36 180.43L122.91 179.11L122.63 177.71L122.53 176.25L122.63 174.79L122.91 173.39L123.36 172.07L123.97 170.86L124.72 169.75L125.6 168.77L126.6 167.94L127.7 167.26L128.88 166.76L130.14 166.45L131.46 166.34L132.77 166.45L134.03 166.76Z" id="a5h6L5nrbb"></path><path d="M277.02 230.46L245.69 258.86L223 281.79L200.36 305.4L171.03 339.13L277.02 230.46Z" id="cevPH0mlt"></path><path d="M53.82 311.58L47.28 345.6L53.82 380.93L70.83 405.79" id="g6qSIYzfLV"></path><path d="M202.98 323.36L219.15 349.53L192 339.06L202.98 367.85L178.12 344.36L178.12 374.39L166.9 349.53L151.95 378.31L155.53 344.36L131.46 360L144.1 339.06L115.32 344.36L140.38 328.59" id="b1ihGVqDfV"></path><path d="M282.79 311.58L286.07 342.99L286.07 371.77L272.33 397.94" id="bY5qE9QWw"></path></defs><g><g><g><g><filter id="shadow6249064" x="47.22" y="351.92" width="263.06" height="275.05" filterUnits="userSpaceOnUse" primitiveUnits="userSpaceOnUse"><feFlood></feFlood><feComposite in2="SourceAlpha" operator="in"></feComposite><feGaussianBlur stdDeviation="1.41"></feGaussianBlur><feOffset dx="3" dy="4" result="afterOffset"></feOffset><feFlood flood-color="#000000" flood-opacity="0.5"></feFlood><feComposite in2="afterOffset" operator="in"></feComposite><feMorphology operator="dilate" radius="1"></feMorphology><feComposite in2="SourceAlpha" operator="out"></feComposite></filter><path d="M289.9 369.61L290.92 372.02L291.76 374.46L292.42 376.93L292.89 379.44L293.18 381.97L293.28 384.53L293.18 387.09L292.89 389.63L292.42 392.13L291.76 394.61L290.92 397.05L289.9 399.46L288.72 401.83L287.36 404.16L285.84 406.46L284.15 408.71L282.31 410.92L280.32 413.08L278.18 415.19L275.88 417.25L273.45 419.26L270.88 421.22L268.17 423.12L265.33 424.96L262.37 426.74L259.28 428.46L256.07 430.11L252.74 431.7L249.3 433.22L245.76 434.67L242.1 436.05L238.35 437.35L234.5 438.58L230.55 439.73L226.52 440.79L225.15 441.12L225.15 493.52L225.85 494.23L226.68 495.17L227.46 496.16L228.2 497.2L228.89 498.29L229.53 499.43L230.12 500.6L230.66 501.82L231.14 503.08L231.56 504.37L231.92 505.7L232.23 507.06L232.46 508.44L232.64 509.86L232.74 511.3L232.78 512.76L232.74 514.22L232.64 515.66L232.46 517.07L232.23 518.46L231.92 519.81L231.56 521.14L231.14 522.43L230.66 523.69L230.12 524.91L229.53 526.09L228.89 527.22L228.2 528.31L227.46 529.35L226.68 530.34L225.85 531.28L224.98 532.16L224.06 532.99L223.12 533.76L222.13 534.46L221.97 534.56L221.97 608.97L201.72 608.97L201.72 534.41L200.8 533.76L199.86 532.99L198.94 532.16L198.07 531.28L197.24 530.34L196.46 529.35L195.72 528.31L195.03 527.22L194.39 526.09L193.8 524.91L193.26 523.69L192.78 522.43L192.36 521.14L192 519.81L191.69 518.46L191.46 517.07L191.28 515.66L191.18 514.22L191.14 512.76L191.18 511.3L191.28 509.86L191.46 508.44L191.69 507.06L192 505.7L192.36 504.37L192.78 503.08L193.26 501.82L193.8 500.6L194.39 499.43L195.03 498.29L195.72 497.2L196.46 496.16L197.24 495.17L198.07 494.23L198.77 493.52L198.77 445.58L196.06 445.85L191.44 446.2L186.76 446.46L182.03 446.61L177.25 446.67L172.47 446.61L167.74 446.46L163.06 446.2L158.44 445.85L153.88 445.4L149.38 444.86L149.03 444.81L149.03 493.52L149.73 494.23L150.56 495.17L151.34 496.16L152.08 497.2L152.77 498.29L153.42 499.43L154.01 500.6L154.54 501.82L155.02 503.08L155.44 504.37L155.81 505.7L156.11 507.06L156.35 508.44L156.52 509.86L156.62 511.3L156.66 512.76L156.62 514.22L156.52 515.66L156.35 517.07L156.11 518.46L155.81 519.81L155.44 521.14L155.02 522.43L154.54 523.69L154.01 524.91L153.42 526.09L152.77 527.22L152.08 528.31L151.34 529.35L150.56 530.34L149.73 531.28L148.86 532.16L147.95 532.99L147 533.76L146.08 534.41L146.08 608.97L125.83 608.97L125.83 534.56L125.67 534.46L124.69 533.76L123.74 532.99L122.83 532.16L121.96 531.28L121.13 530.34L120.34 529.35L119.6 528.31L118.91 527.22L118.27 526.09L117.68 524.91L117.14 523.69L116.66 522.43L116.24 521.14L115.88 519.81L115.58 518.46L115.34 517.07L115.17 515.66L115.06 514.22L115.03 512.76L115.06 511.3L115.17 509.86L115.34 508.44L115.58 507.06L115.88 505.7L116.24 504.37L116.66 503.08L117.14 501.82L117.68 500.6L118.27 499.43L118.91 498.29L119.6 497.2L120.34 496.16L121.13 495.17L121.96 494.23L122.66 493.52L122.66 439.35L120 438.58L116.15 437.35L112.4 436.05L108.74 434.67L105.2 433.22L101.76 431.7L98.43 430.11L95.22 428.46L92.13 426.74L89.17 424.96L86.33 423.12L83.62 421.22L81.05 419.26L78.61 417.25L76.32 415.19L74.18 413.08L72.19 410.92L70.34 408.71L68.66 406.46L67.14 404.16L65.78 401.83L64.6 399.46L63.58 397.05L62.74 394.61L62.08 392.13L61.61 389.63L61.32 387.09L61.22 384.53L61.32 381.97L61.61 379.44L62.08 376.93L62.74 374.46L63.58 372.02L64.6 369.61L65.78 367.24L66.55 365.92L287.95 365.92L288.72 367.24L289.9 369.61Z" id="iInywmjL2" fill="white" fill-opacity="1" filter="url(#shadow6249064)"></path></g><use xlink:href="#b52ugV7B2W" opacity="1" fill="#d2b69c" fill-opacity="1"></use></g><g><use xlink:href="#c2TIIjdl9C" opacity="1" fill="#e2e6ea" fill-opacity="1"></use></g><g><use xlink:href="#dzTlQP4RK" opacity="1" fill="#ac9178" fill-opacity="1"></use></g><g><g><filter id="shadow1058100" x="-91.89" y="438.64" width="522.98" height="286.03" filterUnits="userSpaceOnUse" primitiveUnits="userSpaceOnUse"><feFlood></feFlood><feComposite in2="SourceAlpha" operator="in"></feComposite><feGaussianBlur stdDeviation="7.07"></feGaussianBlur><feOffset dx="1" dy="1" result="afterOffset"></feOffset><feFlood flood-color="#000000" flood-opacity="0.5"></feFlood><feComposite in2="afterOffset" operator="in"></feComposite><feMorphology operator="dilate" radius="1"></feMorphology><feComposite in2="SourceAlpha" operator="out"></feComposite></filter><path d="M15.11 616.67L323.09 616.67L323.09 545.64L300.21 555.22L278.4 573.06L262.54 580.48L238.75 567.11L224.71 555.22L190.71 559.66L185.23 573.06L169.1 580.48L148.59 567.11L122.22 573.06L101.41 567.11L80.16 573.06L66.28 592.88L42.49 580.48L15.11 567.11L15.11 616.67Z" id="bOIxeRpkU" fill="white" fill-opacity="1" filter="url(#shadow1058100)"></path></g><use xlink:href="#e5qkR0Cpb" opacity="0.92" fill="#e2e6ea" fill-opacity="1"></use></g><g><use xlink:href="#a3MrgY9BM" opacity="1" fill="#686969" fill-opacity="1"></use></g><g><use xlink:href="#a5h6L5nrbb" opacity="1" fill="#686969" fill-opacity="1"></use></g><g><use xlink:href="#cevPH0mlt" opacity="1" fill="#8d8d8d" fill-opacity="1"></use></g><g><g><use xlink:href="#g6qSIYzfLV" opacity="1" fill-opacity="0" stroke="#d8dadd" stroke-width="4" stroke-opacity="1"></use></g></g><g><g><use xlink:href="#b1ihGVqDfV" opacity="1" fill-opacity="0" stroke="#d8dadd" stroke-width="3" stroke-opacity="1"></use></g></g><g><g><use xlink:href="#bY5qE9QWw" opacity="1" fill-opacity="0" stroke="#d8dadd" stroke-width="4" stroke-opacity="1"></use></g></g></g></g></svg>